<svg width="15" height="15" viewBox="0 0 10 11" fill="none" xmlns="http://www.w3.org/2000/svg">
<path d="M1.87022 3.96475L2.0074 3.9341C2.9892 3.7147 3.73083 2.91511 3.87841 1.92062C4.12496 0.259265 6.52629 0.255621 6.79547 1.91978C6.95639 2.91458 7.7118 3.71896 8.69546 3.94795C10.2663 4.31363 10.2236 6.56677 8.64878 6.8756C7.69165 7.0633 6.93797 7.811 6.7548 8.76763L6.73394 8.87653C6.43601 10.4325 4.1943 10.3901 3.91737 8.82322C3.74386 7.84159 2.96833 7.0613 1.98844 6.8693C0.410912 6.5602 0.309112 4.3136 1.87022 3.96475Z" fill="url(#paint0_linear_16_278)"/>
<defs>
<linearGradient id="paint0_linear_16_278" x1="-0.72919" y1="6.05889" x2="11.9277" y2="5.17771" gradientUnits="userSpaceOnUse">
<stop offset="0.140625" stop-color="#B16CEA"/>
<stop offset="0.447917" stop-color="#FF5E69"/>
<stop offset="0.71875" stop-color="#FF8A56"/>
<stop offset="1" stop-color="#FFA84B"/>
</linearGradient>
</defs>
</svg>
