<svg width="68" height="66" viewBox="0 0 68 66" fill="none" xmlns="http://www.w3.org/2000/svg">
<path d="M22.6666 66C28.9226 66 34 61.072 34 55V44H22.6666C16.4106 44 11.3333 48.928 11.3333 55C11.3333 61.072 16.4106 66 22.6666 66Z" fill="#0ACF83"/>
<path d="M11.3333 33C11.3333 26.928 16.4106 22 22.6666 22H34V44H22.6666C16.4106 44 11.3333 39.072 11.3333 33Z" fill="#A259FF"/>
<path d="M11.3333 11C11.3333 4.928 16.4106 0 22.6666 0H34V22H22.6666C16.4106 22 11.3333 17.072 11.3333 11Z" fill="#F24E1E"/>
<path d="M34 0H45.3333C51.5893 0 56.6667 4.928 56.6667 11C56.6667 17.072 51.5893 22 45.3333 22H34V0Z" fill="#FF7262"/>
<path d="M56.6667 33C56.6667 39.072 51.5893 44 45.3333 44C39.0773 44 34 39.072 34 33C34 26.928 39.0773 22 45.3333 22C51.5893 22 56.6667 26.928 56.6667 33Z" fill="#1ABCFE"/>
</svg>
